<svg xmlns="http://www.w3.org/2000/svg" width="539" height="175" viewBox="0 0 539 175" xmlns:xlink="http://www.w3.org/1999/xlink"><defs><path id="a" d="M0 176.123h538.918V.916H0z"/></defs><g fill="none" fill-rule="evenodd"><path fill="#1D1C1B" d="M67.807 33.765v.003-.005"/><g transform="translate(0 -1.254)"><path fill="#1D1C1B" d="M208.827 29.02c-.016.024-1.075 1.782-1.075 1.782-.196.33-.324.477-1.15.532h-32.504c.37-.612.68-1.173.938-1.66.015-.017 1.162-2.07 3.214-2.07l29.773-.002c.31.01.72.053.925.404.03.05.092.146.092.325 0 .162-.053.385-.213.69zm-3.98 3.53l-1.13 1.99c-.155.296-.398.753-1.152 1.014-.637.16-1.9.056-2.333.007l-27.648-1.835c.362-.532.69-1.042.995-1.526h31.51c-.083.104-.16.217-.242.35zm-4.698 4.39c.006-.01-1.09 1.917-1.31 2.318-.06.078-.374.417-1.386.282l-26.492-3.554c.363-.48.71-.947 1.026-1.404l28.146 1.87c.04.004.16.016.33.03-.112.13-.222.285-.315.46zm-9.11 5.142c-1 .264-2.95-.036-3.625-.178l-18.206-3.74c.4-.465.782-.934 1.14-1.39l26.607 3.567-5.918 1.742zm-9.023 2.647c-1.28.345-2.95-.215-2.968-.22l-.024-.004h-.005l-12.18-3.76a54.1 54.1 0 0 0 1.718-1.83l18.68 3.836c.046.01.424.09.964.163l-6.185 1.814zm-9.52 2.795c-.863.235-2.144-.262-2.563-.475 0 0-3.26-1.528-6.61-3.094a44.026 44.026 0 0 0 2.823-2.52l12.635 3.9c.024.006.254.082.604.164l-6.888 2.025zm-1.95 1.908c-.37.942-.75 1.916-3.34 2.89-1.075.328-2.35-.617-2.357-.626l-6.178-4.42a43.923 43.923 0 0 0 3.9-2.718l6.985 3.264c.04.02.757.383 1.628.545-.42.475-.6.966-.638 1.063zm-9.762 4.715l-.972.27c-.82.192-1.824-.62-2.145-.953 0 0-1.565-1.638-3.585-3.74 1.29-.59 2.557-1.24 3.783-1.962l6.47 4.63c.028.02.4.298.94.532l-4.49 1.223zm-8.558 2.338c-.68.106-1.477-1.015-1.707-1.434l-1.952-3.305a40.022 40.022 0 0 0 4.672-1.655l3.81 3.97c.03.035.452.472 1.054.817l-5.877 1.606zm-6.48 1.768c-.46.1-.846.056-1.18-.148-.714-.435-.954-1.44-.965-1.502l-.995-3.594c1.736-.24 3.44-.58 5.1-1.022l2.066 3.496c.07.128.485.856 1.118 1.364l-5.143 1.406zm-4.197-1.306s-2.768-2.642-3.71-3.534c1.322-.045 2.62-.14 3.898-.294l1.02 3.672c.026.133.224.935.794 1.575-.778-.224-1.014-.454-2.002-1.42zm-4.855-4.377V41.385h1.79l3.018 10.893c-1.575.18-3.177.278-4.808.294zm-5.674-.293l3.026-10.893h1.785v11.184a46.256 46.256 0 0 1-4.81-.29zm-.787 5.382a2.884 2.884 0 0 1-1.26.707c.57-.643.77-1.45.798-1.577l1.02-3.67c1.274.153 2.575.25 3.89.294l-4.447 4.245zm-1.304-1.063c0 .012-.24 1.065-.973 1.51-.334.203-.72.247-1.173.147l-5.15-1.406c.634-.508 1.054-1.243 1.125-1.376l2.056-3.482c1.664.444 3.365.78 5.106 1.022l-.993 3.585zm-8.633-.11l-5.878-1.608c.608-.346 1.024-.787 1.06-.818 0 0 1.685-1.755 3.808-3.97a40.186 40.186 0 0 0 4.67 1.662l-1.946 3.29c-.236.427-1.032 1.548-1.715 1.442zm-7.58-2.07l-5.468-1.492c.546-.236.92-.515.95-.538l6.46-4.624c1.23.72 2.497 1.37 3.788 1.96l-3.59 3.742c-.323.334-1.322 1.145-2.14.952zm-7.404-2.095c-2.575-.973-2.966-1.945-3.334-2.884a3.477 3.477 0 0 0-.64-1.07 6.307 6.307 0 0 0 1.64-.552c-.01.003 3.49-1.633 6.97-3.257a44.203 44.203 0 0 0 3.902 2.716l-6.164 4.415c-.024.016-1.3.97-2.375.632zm-5.282-4.797L93.14 45.5c.357-.082.586-.16.616-.17-.012.005 10.24-3.156 12.628-3.894.88.854 1.814 1.698 2.816 2.517l-6.593 3.087c-.44.223-1.713.72-2.574.485zm-9.508-2.793c-2.033-.596-4.178-1.224-6.196-1.817.54-.074.924-.153.962-.163l18.68-3.837c.548.607 1.113 1.22 1.716 1.83L93.488 44.51c-.03.005-1.688.56-2.966.222zm-9.027-2.648c-2.743-.808-4.976-1.46-5.927-1.743l26.61-3.565c.364.455.743.92 1.14 1.39l-18.206 3.74c-.674.14-2.618.44-3.617.18zm-6.418-2.544c-1.01.135-1.325-.2-1.386-.282l-1.323-2.33a2.434 2.434 0 0 0-.3-.447c.163-.012 28.473-1.898 28.473-1.898.32.457.663.924 1.027 1.404l-26.49 3.554zm-5.115-3.986c-.756-.26-1-.718-1.15-1.015-.46-.784-1.078-1.967-1.377-2.34h31.52c.3.483.63.993.992 1.525L72.292 35.56c-.434.05-1.697.155-2.33-.006zm-4.032-4.22c-.758-.06-.926-.147-1.157-.534 0 .002-.997-1.653-1.076-1.78-.158-.305-.22-.528-.21-.69.02-.403.293-.717 1.02-.728l29.777.003c2.02 0 3.207 2.07 3.207 2.07.257.486.574 1.047.936 1.66H65.93zm58.288-3.732c1.386 0 2.49.405 3.285 1.203.573.575.972 1.332 1.185 2.258 0 0 .04.16.095.27H99.436a67.488 67.488 0 0 1-1.19-2.068c-.03-.063-.53-.955-1.468-1.663h27.44zm42.5 5.734V32.2h5.833c-.293.466-.617.95-.966 1.458l-4.865-.322zm0 2.08v-1.18l4.266.278c-.317.437-.65.887-1.007 1.34l-3.258-.438zm0 2.236v-1.364l2.636.354c-.35.437-.723.88-1.112 1.324-.68-.14-1.204-.247-1.523-.314zm0 .883l.86.18c-.276.303-.563.612-.86.92v-1.1zm-8.888 2.85h7.124c-.73.72-2.444 2.113-2.497 2.16-1.735-.81-3.42-1.6-4.627-2.16zm-7.386 0h5.344l5.903 2.76c-1.225.94-2.488 1.8-3.782 2.586-2.848-2.038-5.85-4.19-7.464-5.346zm-4.362 0h2.873l8.143 5.823a41.487 41.487 0 0 1-3.655 1.853c-2.68-2.796-5.903-6.16-7.36-7.676zm-3.638 0h2.44l7.71 8.04a38.942 38.942 0 0 1-4.483 1.555l-5.666-9.596zm-1.002 0l5.807 9.83a41.597 41.597 0 0 1-4.88.954l-2.992-10.786h2.064zm-10.357 0h2.06l-2.988 10.784a40.716 40.716 0 0 1-4.88-.956c2.173-3.68 5.08-8.595 5.808-9.83zm-3.44 0h2.435l-5.666 9.595a38.666 38.666 0 0 1-4.486-1.56c3.094-3.222 6.814-7.1 7.716-8.036zm-4.075 0h2.87l-7.358 7.672a40.168 40.168 0 0 1-3.65-1.85c3.53-2.526 7.214-5.16 8.138-5.823zm-13.5 2.16c-.065-.052-1.768-1.484-2.494-2.16h7.123l-4.63 2.16zm6.668-2.16h5.345l-7.465 5.346a40.966 40.966 0 0 1-3.785-2.586c2.806-1.313 5.398-2.53 5.905-2.76zm-10.936-2.85v1.09a59.437 59.437 0 0 1-.858-.91c.348-.072.632-.13.858-.18zm0-2.247v1.368l-1.517.31a49.513 49.513 0 0 1-1.112-1.324l2.63-.354zm0-2.053v1.18l-3.25.438c-.35-.455-.688-.902-1.002-1.34l4.252-.278zm0-.9l-4.855.323c-.35-.507-.67-.992-.97-1.46h5.825v1.138zm.875 7.185c-.003-.006-.008-.01-.01-.015v-8.302h59.188v8.31c-.004 0-.005.002-.005.004l-59.173.003zm37.164-9.457c.207-.926.606-1.683 1.18-2.258.797-.798 1.902-1.203 3.286-1.203h27.442a5.719 5.719 0 0 0-1.466 1.663 44.89 44.89 0 0 1-1.193 2.07h-29.347c.06-.104.098-.272.098-.272zm66.064-3.626c-.522-.87-1.452-.923-1.86-.947h-59.738c-1.694 0-3.058.52-4.073 1.53-.72.722-1.216 1.66-1.475 2.794-.01.046-.088.27-.593.27H130.36c-.512 0-.577-.236-.59-.262-.258-1.135-.752-2.08-1.478-2.805-1.015-1.015-2.38-1.527-4.074-1.527H64.476c-.38.014-1.334.077-1.853.946-.25.417-.435 1.125.105 2.118.005.003 1.09 1.818 1.09 1.818.445.733.96 1.002 2.032 1.072.015 0 .517.05.866.658l1.108 1.957c.24.446.788 1.5 2.678 1.753.032.005.585.067.893.647l1.372 2.42c.4.773.96 1.067 1.98 1.38.004 0 24.99 7.337 24.99 7.337.846.248 1.196 1.21 1.196 1.21.595 1.54 1.366 2.808 5.27 3.982l20.443 5.58c.247.082 2.593.793 4.356-.913 0 .005 4.792-4.576 4.792-4.576 0 .002.196-.195.467-.195.274 0 .47.197.47.202.01.012 4.798 4.575 4.798 4.575 1.76 1.7 4.11.99 4.365.9-.013.008 20.42-5.566 20.435-5.573 3.897-1.175 4.694-2.466 5.262-3.98.025-.068.364-.965 1.202-1.213 0 0 3.776-1.11 24.973-7.332 1.033-.318 1.59-.612 1.992-1.384l1.366-2.402c.312-.592.855-.66.875-.663 1.91-.254 2.47-1.31 2.7-1.756l1.117-1.958c.352-.605.844-.657.87-.658 1.065-.07 1.577-.34 2.023-1.07l1.09-1.823c.234-.423.353-.832.353-1.22 0-.323-.082-.622-.246-.893z"/><path fill="#1D1C1B" d="M109.484 36.607c.054-.122.72-1.68.79-1.863.09.18.762 1.74.812 1.863h-1.602zm1.12-3.078h-.252l-2.526 5.66h.683l.007-.035c.203-.69.472-1.346.725-1.984 0 0 .038-.088.058-.13h1.952c.264.602.532 1.293.82 2.115l.016.035h.944l-2.43-5.66zm2.698 5.257l.02.02c.306.327.98.478 1.34.478 1.184 0 2.016-.766 2.016-1.864 0-.907-.684-1.18-1.355-1.442-.592-.235-1.154-.456-1.154-1.125 0-.514.402-.884.957-.884.44 0 .77.233.938.66l.015.03h.15l.232-.71-.02-.024c-.327-.294-.817-.397-1.174-.397-1.105 0-1.816.617-1.816 1.575 0 .98.72 1.263 1.37 1.512.574.233 1.122.446 1.122 1.112 0 .627-.47 1.114-1.057 1.114-.543 0-.904-.234-1.253-.804l-.01-.024h-.15l-.172.77zm7.844-5.138h-4.162v.583l.053-.006c.477-.05.94-.094 1.69-.096v5.078h.8v-5.078c.567.002 1.107.035 1.612.096l.057.007v-.582h-.05zm4.344 4.649c-.388.42-.886.63-1.47.63-1.294 0-2.124-.95-2.124-2.41 0-1.62.84-2.628 2.193-2.628.644 0 1.243.28 1.614.752.412.525.497 1.068.497 1.723a.701.701 0 0 1 .006.114c0 .526-.215 1.282-.716 1.817m-1.476-4.77c-1.77 0-2.997 1.19-2.997 2.892 0 1.712 1.198 2.864 2.982 2.864 1.84 0 3.08-1.196 3.08-2.983 0-1.913-1.536-2.772-3.066-2.772m8.609.122h-.492v4.1h-.008c-.032-.03-3.79-4.1-3.79-4.1h-.38v5.543h.546V34.9h.015c.025.03 3.42 3.79 3.42 3.79l.426.497.026.004h.288V33.65h-.052zm8.955 0h-.19l-1.347 2.437s-.847 1.542-.927 1.682c-.827-1.38-1.575-2.836-2.205-4.094l-.015-.025h-.285l-.004.043c-.08.822-.55 4.155-.762 5.443l-.007.058h.67v-.05c0-.778.133-1.946.282-3.18 0 0 .068-.544.093-.76.092.174 1.133 2.16 1.532 2.974l.447.927h.16l.01-.03c.46-1.062 1.115-2.28 2.01-3.882.127.954.295 2.86.388 3.956l.003.047h.852l-.003-.057c-.194-1.345-.407-3.122-.65-5.442v-.042h-.053zm2.693 2.959c.047-.122.715-1.68.79-1.863.084.18.757 1.74.812 1.863h-1.603zm1.11-3.078h-.247l-2.53 5.66h.687l.008-.036c.206-.693.472-1.353.726-1.994 0 0 .034-.078.05-.12h1.958c.27.613.543 1.324.825 2.115l.012.035h.946l-2.436-5.66zm3.71 2.604v-2.095c.327-.014.833-.035 1.11.008.554.09.84.414.84.955 0 .556-.37.963-.982 1.09-.35.07-.77.056-.97.043m1.158.32c1-.204 1.6-.775 1.6-1.548 0-.846-.598-1.258-1.82-1.258h-1.736v5.543h.8v-2.658h.232c.026.034.62.732.62.732-.004 0 .938 1.213.938 1.213l.52.71.022.003h1.022s-2.1-2.624-2.198-2.738m6.212-2.805h-4.167v.583l.06-.006c.478-.05.938-.094 1.692-.096v5.078h.803v-5.078c.56.002 1.103.035 1.605.096l.058.007v-.582h-.05z"/><mask id="b" fill="#fff"><use xlink:href="#a"/></mask><path fill="#1D1C1B" d="M157.165 39.19h.754v-5.54h-.755m6.112-.002v4.1h-.01l-3.787-4.1h-.38v5.543h.54V34.9h.01c.034.03 3.43 3.79 3.43 3.79l.425.497.314.004V33.65h-.544zM51.984 87.165c.393 0 .805.005 1.233.022.424.013.834.017 1.233.017.43 0 .85 0 1.278-.01.424-.007.847-.015 1.278-.03l-2.533-5.8-2.49 5.8zm10.11 7.09a5.176 5.176 0 0 0-.6-.04h-1.216c-.19 0-.397.015-.604.04-.108-.344-.25-.77-.437-1.264a44.6 44.6 0 0 0-.604-1.55c-.22-.54-.446-1.084-.675-1.643-.225-.553-.436-1.086-.632-1.58-.494-.02-.984-.03-1.484-.038a76.156 76.156 0 0 0-2.904-.001c-.454.007-.917.016-1.39.037a86.852 86.852 0 0 0-1.327 3.39 41.941 41.941 0 0 0-.892 2.648 8.859 8.859 0 0 0-1.686 0 471.753 471.753 0 0 0 3.608-7.937c1.17-2.632 2.35-5.305 3.54-8.04h.432l1.187 2.866c.424 1.03.86 2.062 1.298 3.117.444 1.053.89 2.093 1.328 3.13l1.243 2.893c.39.885.738 1.68 1.054 2.376.31.7.56 1.23.76 1.595zm2.844-2.129a3.84 3.84 0 0 0 1.793 1.323c.396.15.838.218 1.32.218.507 0 .956-.08 1.364-.264a3.183 3.183 0 0 0 1.03-.708c.273-.292.494-.643.645-1.046.15-.406.227-.84.227-1.295 0-.7-.183-1.253-.537-1.656a4.222 4.222 0 0 0-1.33-1.03c-.533-.28-1.114-.53-1.73-.76a8.735 8.735 0 0 1-1.72-.856 4.428 4.428 0 0 1-1.334-1.316c-.358-.527-.542-1.248-.542-2.137 0-.642.116-1.225.342-1.75a3.99 3.99 0 0 1 .995-1.363c.44-.374.96-.673 1.563-.88.61-.218 1.295-.33 2.06-.33.728 0 1.36.095 1.895.27a4.809 4.809 0 0 1 1.48.804c-.14.262-.244.534-.34.828-.092.29-.182.652-.276 1.09h-.274a5.82 5.82 0 0 0-.304-.69 2.83 2.83 0 0 0-1.316-1.23c-.303-.155-.667-.223-1.094-.223-.423 0-.82.068-1.173.21-.36.136-.677.327-.936.58a2.51 2.51 0 0 0-.618.9c-.144.35-.218.73-.218 1.143 0 .714.18 1.278.537 1.69.36.413.8.754 1.336 1.04.533.284 1.113.535 1.722.752.617.218 1.193.49 1.725.806.53.323.982.736 1.338 1.235.355.5.535 1.176.535 2.01 0 .7-.128 1.364-.383 1.988a4.575 4.575 0 0 1-1.093 1.627c-.48.47-1.06.828-1.756 1.073-.693.256-1.476.38-2.36.38-.945 0-1.714-.124-2.297-.38a5.98 5.98 0 0 1-1.473-.855c.136-.35.234-.668.29-.946.047-.28.097-.638.147-1.09h.272c.122.278.288.56.492.84m14.753-12.363c-.395 0-.81.005-1.242.016-.43.006-.866.023-1.3.044-.433.022-.855.047-1.256.082-.402.025-.763.068-1.087.11.075-.273.11-.516.11-.728 0-.166-.035-.404-.11-.703 1.01.025 1.988.055 2.946.073.956.025 1.94.033 2.946.033 1.005 0 1.984-.007 2.944-.032.96-.018 1.94-.048 2.94-.073-.067.3-.112.542-.112.728 0 .192.045.43.113.703a15.1 15.1 0 0 0-1.08-.11 35.61 35.61 0 0 0-1.26-.082c-.43-.02-.86-.038-1.298-.043-.428-.01-.854-.015-1.243-.015a154.53 154.53 0 0 0-.074 4.727v3.93c0 1 .02 1.996.06 2.963.043.976.08 1.934.126 2.87a15.771 15.771 0 0 0-1.118-.042c-.395 0-.766.017-1.12.042.047-.936.09-1.894.123-2.87.042-.967.06-1.962.06-2.964v-3.928c0-1.58-.025-3.16-.07-4.727m22.077 3.407c-.32-.916-.764-1.674-1.334-2.278a5.406 5.406 0 0 0-2.01-1.34 7.126 7.126 0 0 0-2.498-.432c-.885 0-1.704.148-2.475.43a5.446 5.446 0 0 0-2.013 1.342c-.573.604-1.015 1.362-1.33 2.278-.324.928-.482 2.018-.482 3.278 0 1.266.158 2.356.483 3.275.315.92.757 1.682 1.33 2.285.57.6 1.245 1.043 2.013 1.334.77.293 1.59.433 2.475.433.9 0 1.735-.14 2.498-.434a5.358 5.358 0 0 0 2.01-1.335c.57-.603 1.015-1.366 1.333-2.286.323-.92.482-2.01.482-3.276 0-1.26-.16-2.35-.483-3.278m-13.75-.18c.418-1.013 1.003-1.87 1.756-2.567.757-.704 1.656-1.235 2.708-1.598 1.048-.362 2.2-.553 3.444-.553 1.26 0 2.42.19 3.47.552 1.048.363 1.95.894 2.705 1.597.75.697 1.337 1.553 1.76 2.566.416 1.014.624 2.172.624 3.458 0 1.296-.208 2.444-.625 3.457a7.345 7.345 0 0 1-1.76 2.574c-.755.7-1.656 1.222-2.704 1.563-1.05.34-2.21.512-3.47.512-1.243 0-2.396-.172-3.444-.513a7.2 7.2 0 0 1-2.708-1.563 7.25 7.25 0 0 1-1.755-2.573c-.42-1.012-.632-2.16-.632-3.456 0-1.286.21-2.444.633-3.458m27.155 5.35c-1.982-2.124-3.96-4.233-5.937-6.336-.02.427-.04.992-.05 1.713-.02.71-.027 1.686-.027 2.92 0 .32.005.715.01 1.192.01.464.02.958.026 1.473.008.523.02 1.052.04 1.58.012.532.03 1.03.042 1.482.02.464.03.86.047 1.202.01.34.027.574.05.69a7.498 7.498 0 0 0-.804-.044c-.307 0-.586.017-.846.043.03-.15.067-.427.105-.844.038-.404.072-.897.1-1.46l.105-1.873c.03-.662.068-1.335.086-2.008.025-.663.046-1.32.06-1.957.013-.643.02-1.215.02-1.713 0-1.46-.004-2.72-.007-3.77a47.964 47.964 0 0 0-.06-2.353h.365c.932 1.007 1.92 2.086 2.98 3.23 1.052 1.15 2.11 2.283 3.15 3.403 1.046 1.12 2.03 2.18 2.97 3.177.937.992 1.755 1.84 2.45 2.542v-3.105c0-1.597-.014-3.15-.03-4.67a114.41 114.41 0 0 0-.15-4.273c.307.07.56.108.777.108.18 0 .426-.04.728-.108-.03.33-.063.83-.098 1.5-.042.67-.078 1.383-.116 2.15a99.77 99.77 0 0 0-.103 2.236 38.35 38.35 0 0 0-.045 1.76v1.365c0 .52.005 1.062.01 1.623.008.562.01 1.133.025 1.698.006.572.015 1.11.018 1.6.01.492.014.918.014 1.288v.754h-.32c-1.75-2.027-3.614-4.1-5.588-6.217m25.377-3.762c1.07 2.044 2.192 4.14 3.364 6.28.15-.288.374-.705.66-1.242.288-.537.626-1.158 1-1.86.383-.695.792-1.456 1.226-2.266.435-.822.875-1.644 1.327-2.484.447-.83.89-1.656 1.333-2.46.442-.804.856-1.56 1.23-2.265h.302c.163 1.463.322 2.874.467 4.236.143 1.362.286 2.708.44 4.014.155 1.32.3 2.624.458 3.91.154 1.286.32 2.56.5 3.815a3.844 3.844 0 0 0-.535-.042h-1.074c-.175 0-.35.017-.534.042-.173-2.014-.334-3.976-.505-5.884-.162-1.903-.37-3.84-.614-5.82h-.045c-1.05 1.92-2.08 3.82-3.088 5.723a86.494 86.494 0 0 0-2.896 5.94h-.204a184.307 184.307 0 0 0-2.864-5.757c-.994-1.93-1.99-3.896-3-5.907h-.046c-.11.94-.226 1.97-.35 3.075a143.685 143.685 0 0 0-.63 6.302 30.024 30.024 0 0 0-.117 2.328 7.805 7.805 0 0 0-1.593 0c.196-1.23.4-2.524.615-3.9.21-1.367.418-2.746.616-4.125.19-1.39.38-2.76.545-4.103.168-1.346.314-2.627.435-3.848h.39a192.155 192.155 0 0 0 3.186 6.296m19.614 2.591c.4 0 .81.005 1.23.022.43.013.84.017 1.236.017.422 0 .85 0 1.276-.01.432-.007.854-.015 1.28-.03l-2.536-5.8-2.487 5.8zm10.117 7.09a5.178 5.178 0 0 0-.607-.04h-1.206c-.193 0-.392.015-.61.04-.106-.344-.25-.77-.433-1.264-.18-.49-.384-1.004-.605-1.55-.22-.54-.445-1.084-.674-1.643-.23-.553-.44-1.086-.64-1.58-.486-.02-.98-.03-1.483-.038a75.734 75.734 0 0 0-2.9-.001c-.455.007-.917.016-1.39.037a86.782 86.782 0 0 0-1.326 3.39 37.151 37.151 0 0 0-.89 2.648 8.777 8.777 0 0 0-1.687 0 556.558 556.558 0 0 0 3.607-7.937c1.17-2.632 2.35-5.305 3.537-8.04h.44c.358.886.753 1.84 1.18 2.866.426 1.03.86 2.062 1.3 3.117.44 1.053.882 2.093 1.327 3.13.445 1.032.857 1.994 1.247 2.893.38.885.736 1.68 1.044 2.376.316.7.57 1.23.77 1.595zm6.676-8.371c.25.013.53.02.83.02.476 0 .96-.05 1.476-.156a4.458 4.458 0 0 0 1.402-.554c.427-.277.783-.63 1.064-1.078.282-.45.42-1.014.42-1.703 0-.592-.108-1.082-.334-1.472a2.624 2.624 0 0 0-.85-.925 3.322 3.322 0 0 0-1.142-.467 6.372 6.372 0 0 0-1.21-.124c-.535 0-.977.008-1.33.035-.346.015-.64.045-.885.078l-.09 2.483c-.034.828-.048 1.65-.048 2.47v1.304c.214.043.446.076.696.09m-2.626-4.352c-.036-.962-.076-1.95-.126-2.947.442.026.876.056 1.3.073.43.025.862.033 1.302.033.444 0 .876-.016 1.3-.05.428-.042.863-.055 1.304-.055.638 0 1.25.056 1.827.174.574.124 1.08.328 1.52.61.434.28.772.645 1.024 1.105.254.456.38 1.027.38 1.712 0 .73-.168 1.354-.488 1.882a4.59 4.59 0 0 1-1.208 1.3c-.47.344-.977.612-1.516.8a7.658 7.658 0 0 1-1.47.373c.184.23.435.554.754.96.32.413.678.868 1.072 1.362.395.493.806 1.01 1.234 1.553.426.542.835 1.054 1.233 1.547.397.502.767.945 1.12 1.357.348.414.63.725.842.934a6.036 6.036 0 0 0-.688-.043h-1.34c-.235 0-.45.017-.664.043-.227-.315-.576-.797-1.038-1.427a85.695 85.695 0 0 0-1.542-2.06 93.552 93.552 0 0 0-1.725-2.178 27.965 27.965 0 0 0-1.607-1.84h-.87v1.67c0 1 .018 1.996.06 2.963.038.975.08 1.934.126 2.87a15.05 15.05 0 0 0-2.24.001c.05-.937.09-1.896.126-2.87.035-.968.06-1.963.06-2.963V84.49c0-1.007-.025-1.987-.06-2.958m18.184-1.767c-.4 0-.812.005-1.242.016a38.258 38.258 0 0 0-2.562.126c-.4.025-.762.068-1.083.11.077-.273.12-.516.12-.728 0-.166-.043-.404-.12-.703 1.005.025 1.986.055 2.946.073.964.025 1.942.033 2.948.033s1.983-.007 2.938-.032c.96-.018 1.944-.048 2.95-.073-.077.3-.117.542-.117.728 0 .192.04.43.118.703a15.992 15.992 0 0 0-1.084-.11 37.851 37.851 0 0 0-2.56-.125c-.432-.01-.843-.015-1.238-.015a157.81 157.81 0 0 0-.073 4.727v3.93c0 1 .02 1.996.06 2.963.036.976.08 1.934.123 2.87-.35-.025-.723-.042-1.115-.042-.398 0-.77.017-1.12.042.042-.936.087-1.894.125-2.87.037-.967.054-1.962.054-2.964v-3.928c0-1.58-.025-3.16-.065-4.727m11.012 1.763c-.04-.962-.082-1.95-.126-2.948.194.027.39.057.566.073.19.027.37.035.552.035.18 0 .364-.008.546-.035.18-.016.378-.046.572-.073-.047.997-.085 1.986-.125 2.948-.04.97-.054 1.95-.054 2.96v3.93c0 1 .015 1.997.055 2.964.04.974.078 1.933.125 2.87-.35-.025-.72-.043-1.118-.043-.394 0-.77.018-1.118.043.044-.937.086-1.896.126-2.87.036-.967.053-1.964.053-2.964v-3.93c0-1.01-.017-1.99-.053-2.96m15.143 6.808c-1.982-2.124-3.962-4.233-5.93-6.336-.016.427-.038.992-.05 1.713-.02.71-.026 1.686-.026 2.92 0 .32.005.715.008 1.192.01.464.017.958.03 1.473.007.523.022 1.052.037 1.58.013.532.028 1.03.04 1.482.02.464.03.86.046 1.202.014.34.034.574.047.69a7.321 7.321 0 0 0-.797-.044c-.306 0-.587.017-.844.043.025-.15.06-.427.1-.844.04-.404.07-.897.1-1.46.03-.58.066-1.197.105-1.873.038-.662.07-1.335.093-2.008.026-.663.045-1.32.056-1.957.014-.643.02-1.215.02-1.713 0-1.46-.002-2.72-.006-3.77-.01-1.05-.026-1.83-.058-2.353h.362c.927 1.007 1.92 2.086 2.98 3.23a1094.285 1094.285 0 0 0 6.117 6.58c.94.992 1.753 1.84 2.45 2.542v-3.105c0-1.597-.01-3.15-.032-4.67a109.09 109.09 0 0 0-.14-4.273c.294.07.557.108.77.108.186 0 .425-.04.73-.108-.03.33-.066.83-.102 1.5-.038.67-.07 1.383-.112 2.15-.037.76-.072 1.503-.105 2.236-.032.732-.047 1.32-.047 1.76v1.365c0 .52.004 1.062.012 1.623.008.562.012 1.133.023 1.698.01.572.018 1.11.025 1.6.008.492.008.918.008 1.288v.754h-.318c-1.75-2.027-3.615-4.1-5.59-6.217M96.168 112.782c.097.015.2.025.308.03.108.002.256.004.442.004 1.713 0 2.992-.28 3.838-.838.846-.558 1.27-1.404 1.27-2.537 0-1.027-.33-1.802-.99-2.323-.66-.522-1.64-.783-2.945-.783-.24 0-.707.022-1.408.066-.163.01-.29.015-.38.024-.044.342-.077.704-.1 1.083-.022.38-.034.798-.034 1.253v4.022zm-2.012 8.36c.045-.805.078-1.725.102-2.76.02-1.035.033-2.717.033-5.04 0-1.975-.01-3.56-.032-4.757a78.148 78.148 0 0 0-.112-3.078c.058.008.133.01.223.01.416.023.695.034.838.034.282 0 .83-.014 1.642-.043.812-.03 1.483-.045 2.012-.045 1.728 0 3.02.307 3.873.922.852.615 1.28 1.545 1.28 2.788 0 1.082-.398 1.99-1.19 2.728-.795.738-1.926 1.24-3.393 1.51 1.088 1.444 3.017 3.877 5.788 7.296.157.195.273.34.348.436a11.306 11.306 0 0 0-.716-.083 6.91 6.91 0 0 0-1.296.002c-.216.02-.447.046-.693.08a136.248 136.248 0 0 0-1.57-2.247 74.42 74.42 0 0 0-1.28-1.73l-2.504-3.21a1.282 1.282 0 0 0-.403-.385 1.024 1.024 0 0 0-.503-.116c-.088 0-.216.01-.38.033-.03.007-.05.012-.056.012v4.19c0 .512.012 1.057.034 1.63.023.574.053 1.182.09 1.822a7.41 7.41 0 0 0-.56-.083 4.303 4.303 0 0 0-1.016 0c-.18.017-.365.045-.56.082zm17.591-7.119c.08 0 .317.003.704.012a68.7 68.7 0 0 0 2.404 0c.685-.01 1.25-.012 1.698-.012l-.39-1.005a35.85 35.85 0 0 0-.476-1.168c-.257-.615-.754-1.783-1.492-3.504l-2.447 5.677zm-4.26 7.12c1.432-3.13 2.72-5.987 3.87-8.574a597.193 597.193 0 0 0 3.206-7.353H115a518.095 518.095 0 0 0 3.257 7.995c1.106 2.655 2.23 5.3 3.37 7.93-.202-.034-.393-.06-.575-.08a5.006 5.006 0 0 0-1.097-.004c-.19.018-.392.047-.608.085a56.033 56.033 0 0 0-.894-2.554c-.33-.87-.678-1.75-1.05-2.645l-.392-.917a45.585 45.585 0 0 0-1.078-.033c-.383-.007-.963-.012-1.738-.012-.79 0-1.38.005-1.766.012a43.44 43.44 0 0 0-1.072.033c-.365.843-.736 1.75-1.113 2.722-.375.972-.79 2.103-1.246 3.393a2.537 2.537 0 0 0-1.116-.085 3.006 3.006 0 0 0-.392.085zm28.72-.983c-.574.424-1.29.743-2.152.96-.86.215-1.85.323-2.968.323-2.54 0-4.507-.708-5.9-2.123-1.394-1.416-2.09-3.408-2.09-5.978 0-2.475.77-4.447 2.308-5.92 1.54-1.47 3.6-2.205 6.186-2.205.903 0 1.767.09 2.595.274.825.184 1.6.456 2.324.822-.12.395-.212.772-.275 1.134-.063.36-.095.716-.095 1.067-.545-.85-1.19-1.472-1.934-1.866-.744-.395-1.64-.593-2.682-.593-1.922 0-3.414.64-4.476 1.917-1.062 1.28-1.593 3.077-1.593 5.393 0 2.237.528 3.996 1.582 5.28 1.055 1.287 2.494 1.93 4.32 1.93.855 0 1.71-.165 2.558-.492a9.026 9.026 0 0 0 2.436-1.43l-.143 1.51zm4.667.982c.052-.744.09-1.573.11-2.487.025-.912.035-2.05.035-3.413v-1.9c0-2.437-.01-4.163-.035-5.18a57.176 57.176 0 0 0-.11-2.655c.155.03.318.052.486.066a6.218 6.218 0 0 0 1.117 0 6.13 6.13 0 0 0 .532-.066c-.054.513-.09 1.113-.107 1.8-.02.684-.028 1.583-.028 2.693v7.12c0 1.206.01 2.076.028 2.608.018.533.053 1.004.106 1.414a5.877 5.877 0 0 0-1.051-.09c-.204 0-.393.01-.573.024a5.437 5.437 0 0 0-.513.066m5.869-.012a285.815 285.815 0 0 0 .302-13.489v-2.423h.424a204.498 204.498 0 0 0 5.14 5.715c1.785 1.92 3.82 4.026 6.1 6.32 0-.074.002-.19.01-.345.025-.782.04-1.337.04-1.666 0-1.84-.018-3.588-.05-5.246-.036-1.66-.086-3.15-.153-4.477.207.03.36.052.462.062a2.951 2.951 0 0 0 .58-.001c.105-.01.25-.033.434-.063a322.085 322.085 0 0 0-.15 5.282 269.125 269.125 0 0 0-.04 7.604c.006.768.02 1.78.034 3.04h-.292a72.08 72.08 0 0 0-2.49-2.912c-.956-1.068-2.08-2.28-3.37-3.637l-5.532-5.834a110.129 110.129 0 0 0-.076 2.992c0 .932.017 2.122.052 3.57.033 1.446.083 3.282.15 5.51a3.275 3.275 0 0 0-.783-.103c-.12 0-.243.01-.368.028-.124.02-.267.043-.425.073m31.208-.67a25.518 25.518 0 0 1-3.152.715 18.672 18.672 0 0 1-2.94.246c-2.62 0-4.696-.707-6.223-2.123-1.53-1.415-2.292-3.326-2.292-5.732 0-2.534.82-4.558 2.464-6.075 1.644-1.515 3.844-2.274 6.6-2.274 1.102 0 2.127.123 3.072.37.947.245 1.8.61 2.56 1.094-.12.35-.224.69-.313 1.023-.088.33-.167.66-.235.99-.61-.88-1.362-1.537-2.256-1.97-.896-.43-1.96-.647-3.197-.647-1.93 0-3.484.663-4.66 1.99-1.178 1.327-1.767 3.093-1.767 5.298 0 2.175.613 3.92 1.84 5.235 1.224 1.314 2.848 1.972 4.866 1.972.648 0 1.276-.063 1.883-.19a9.156 9.156 0 0 0 1.828-.593c0-.142.01-.474.033-1s.033-.942.033-1.247c0-.358-.006-.75-.02-1.178-.016-.43-.037-1.012-.067-1.75.26.038.455.062.586.073.13.012.254.02.373.028.112-.008.235-.016.37-.028.134-.01.327-.035.58-.073-.014.813-.03 1.52-.044 2.12a57.34 57.34 0 0 0-.024 1.48c0 .446.008.855.023 1.224.014.367.04.708.077 1.02" mask="url(#b)"/><path stroke="#1D1C1B" stroke-width="1.493" d="M517.74 143.452H21.18c-10.968 0-19.94-8.972-19.94-19.94V22.096c0-10.966 8.972-19.94 19.94-19.94h496.56c10.966 0 19.938 8.974 19.938 19.94v101.418c0 10.967-8.972 19.94-19.94 19.94z" mask="url(#b)"/><path fill="#1D1C1B" d="M303.65 160.916c-.153-.46-.355-.828-.613-1.104a2.258 2.258 0 0 0-.904-.596 3.113 3.113 0 0 0-1.076-.188h-.878a.906.906 0 0 0-.238.027 448.725 448.725 0 0 0-.055 7.47c.444 0 .9-.043 1.37-.133.47-.086.9-.27 1.288-.545.39-.274.71-.668.957-1.183.25-.513.373-1.196.373-2.047 0-.673-.075-1.24-.226-1.7m-7.75.04c-.037-1.145-.09-2.29-.16-3.444.3.036.628.066.983.093.354.026.753.04 1.197.04.62 0 1.262-.022 1.927-.067a29.603 29.603 0 0 1 1.954-.067c1.26 0 2.242.093 2.952.28.71.185 1.268.456 1.675.81.568.462.983.975 1.25 1.542.265.568.398 1.25.398 2.048 0 1.01-.168 1.876-.505 2.604a4.523 4.523 0 0 1-1.422 1.77c-.612.45-1.335.784-2.167.995-.833.213-1.745.32-2.737.32h-1.356c0 1.33.013 2.656.04 3.973.026 1.32.085 2.63.173 3.923-.3-.036-.63-.053-.984-.053h-2.393c-.355 0-.683.017-.983.053.07-1.098.123-2.22.16-3.364.034-1.142.052-2.45.052-3.92v-3.617c0-1.47-.018-2.778-.053-3.92m32.089 1.554a97.589 97.589 0 0 0-1.303 3.153c-.41 1.036-.807 2.095-1.198 3.177h4.867c-.392-1.082-.776-2.14-1.157-3.177a122.4 122.4 0 0 0-1.21-3.152m9.412 13.268c-.428-.036-.83-.053-1.21-.053h-2.262c-.38 0-.758.017-1.128.053-.285-.87-.577-1.756-.88-2.66-.3-.904-.62-1.808-.955-2.712a121.87 121.87 0 0 0-3.404-.053 79.672 79.672 0 0 0-2.764.053 59.035 59.035 0 0 0-1.808 5.372 3.732 3.732 0 0 0-.625-.053H321.1c-.21 0-.44.017-.69.053.212-.46.496-1.098.85-1.914.356-.816.744-1.736 1.17-2.766.425-1.027.884-2.13 1.37-3.31.486-1.178.974-2.37 1.46-3.576.488-1.204.966-2.392 1.438-3.562.47-1.17.9-2.258 1.29-3.27.176.036.345.066.505.093.158.027.327.04.503.04.178 0 .346-.013.505-.04.163-.027.33-.057.508-.093l1.82 4.838c.648 1.72 1.3 3.408 1.953 5.066.658 1.66 1.296 3.23 1.917 4.717a59.928 59.928 0 0 0 1.702 3.778m23.556-15.13c-.16-.46-.404-.81-.73-1.05-.33-.238-.755-.394-1.277-.466a14.328 14.328 0 0 0-1.874-.106c-.053 2.41-.08 4.822-.08 7.23a3.621 3.621 0 0 0 .586.057c1.17 0 2.064-.316 2.684-.946.62-.628.93-1.58.93-2.857 0-.78-.08-1.4-.24-1.86zm-3.96 6.754v1.09c0 1.47.017 2.778.052 3.92.034 1.144.087 2.266.16 3.364a8.169 8.169 0 0 0-.985-.053h-2.394a8.1 8.1 0 0 0-.983.053c.07-1.098.122-2.22.158-3.363.035-1.143.053-2.45.053-3.92v-3.618c0-1.47-.017-2.778-.052-3.92a118.12 118.12 0 0 0-.16-3.444c.302.036.63.066.984.093.354.028.753.04 1.197.04.477 0 1.022-.022 1.634-.067.61-.044 1.37-.067 2.273-.067.673 0 1.25.018 1.728.055.478.034.89.088 1.236.157.346.072.647.165.905.28.257.116.5.254.73.412.533.39.953.874 1.264 1.448.308.577.464 1.263.464 2.062 0 1.293-.354 2.348-1.064 3.162-.71.817-1.728 1.392-3.057 1.727.85 1.51 1.763 3.01 2.738 4.506.977 1.5 1.952 2.983 2.926 4.455-.41-.037-.808-.053-1.197-.053H363.2c-.398 0-.802.016-1.21.053l-4.758-8.374h-.24zm28.357-6.967a7.162 7.162 0 0 0-.066-.93c-.266 0-.593.008-.985.026-.39.018-.806.04-1.25.067-.442.026-.894.063-1.354.108-.463.043-.888.09-1.28.144.038-.194.068-.39.096-.585.027-.194.038-.39.038-.585 0-.194-.01-.388-.038-.584-.028-.195-.058-.39-.095-.585.606.018 1.15.036 1.638.053.487.018.982.03 1.487.04.507.01 1.055.018 1.648.028a182.026 182.026 0 0 0 4.28 0c.595-.01 1.14-.018 1.637-.028.495-.01.98-.022 1.45-.04.467-.017.978-.035 1.528-.053-.037.194-.067.39-.095.585a4.605 4.605 0 0 0 0 1.169c.028.196.058.39.095.585-.356-.053-.755-.1-1.198-.144a31.51 31.51 0 0 0-1.316-.108c-.434-.027-.846-.05-1.235-.067-.39-.018-.72-.026-.986-.026-.018.09-.03.212-.038.372-.01.158-.014.344-.014.557v8.057a104.589 104.589 0 0 0 .212 7.284c-.3-.037-.63-.053-.984-.053h-2.391c-.357 0-.684.016-.985.053.07-1.098.123-2.22.16-3.365.034-1.14.053-2.45.053-3.92v-6.645c0-.515-.005-.986-.014-1.41m24.505-.717a148.65 148.65 0 0 1-.08-2.207c.496.09.894.133 1.197.133.3 0 .7-.043 1.196-.133 1.93 2.145 3.842 4.252 5.73 6.326 1.887 2.074 3.822 4.184 5.808 6.33v-4.895c0-.866-.005-1.722-.015-2.564-.008-.842-.018-1.618-.025-2.327-.01-.706-.027-1.32-.055-1.833-.025-.515-.056-.86-.09-1.037.494.09.893.133 1.193.133.303 0 .702-.043 1.198-.133a306.343 306.343 0 0 0-.344 8.054c-.036 1.153-.06 2.293-.068 3.42-.01 1.122-.015 2.324-.015 3.6v3.192a10.17 10.17 0 0 0-1.088-.056c-.39 0-.737.018-1.038.055a340.486 340.486 0 0 0-11.617-12.843 98.643 98.643 0 0 0-.042 1.543c-.008.512-.01 1.037-.01 1.567v3.085c0 1.062.002 1.966.01 2.71.01.746.024 1.376.042 1.888.016.515.035.935.053 1.263.017.33.033.59.052.786a3.633 3.633 0 0 0-.64-.056h-.61c-.407 0-.814.018-1.22.055.032-.144.08-.65.132-1.518a218.878 218.878 0 0 0 .33-7.245c.047-1.462.067-2.866.067-4.215 0-1.22-.018-2.25-.053-3.082m33.233 1.24c-.03-1.143-.076-2.29-.14-3.442.798.016 1.587.043 2.368.08.78.034 1.567.052 2.366.052 1.31 0 2.476-.013 3.494-.04 1.02-.026 1.707-.058 2.06-.092-.07.284-.106.654-.106 1.116 0 .284.01.504.03.665.015.16.042.335.077.53-.514-.034-1.077-.07-1.687-.105-.61-.037-1.206-.07-1.78-.108a88.074 88.074 0 0 0-1.558-.078c-.46-.018-.79-.027-.983-.027-.073.976-.11 1.94-.12 2.898-.01.955-.014 1.924-.014 2.898 1.15-.017 2.193-.045 3.123-.08.932-.035 1.902-.08 2.91-.133-.05.3-.088.532-.106.69-.017.16-.025.33-.025.506 0 .142.012.288.037.44.03.15.057.368.093.65-2.02-.16-4.032-.24-6.034-.24 0 .57-.005 1.136-.014 1.704-.01.565-.013 1.133-.013 1.7 0 1.15.026 2.26.08 3.323 1.01 0 2.02-.027 3.03-.08a44.17 44.17 0 0 0 3.057-.266 7.156 7.156 0 0 0-.078.532c-.02.16-.03.38-.03.664 0 .284.01.505.03.664.015.16.042.293.077.4-.48-.017-1.067-.03-1.768-.04-.7-.01-1.663-.014-2.884-.014h-4.215c-.398 0-.7.005-.9.013a8.08 8.08 0 0 0-.52.04c.062-1.098.107-2.22.138-3.363.032-1.143.047-2.45.047-3.92v-3.617c0-1.47-.015-2.78-.047-3.92m34.583-.306c-.16-.46-.403-.81-.73-1.05-.33-.238-.754-.394-1.278-.466-.52-.07-1.146-.106-1.874-.106-.05 2.41-.08 4.822-.08 7.23.108.02.21.033.308.043.096.01.19.014.28.014 1.17 0 2.063-.316 2.682-.946.622-.628.932-1.58.932-2.857 0-.78-.08-1.4-.24-1.86zm-3.962 6.754v1.09c0 1.47.02 2.778.054 3.92.036 1.144.09 2.266.16 3.364a8.157 8.157 0 0 0-.985-.053h-2.391c-.356 0-.683.016-.986.053.072-1.098.125-2.22.16-3.363.035-1.143.053-2.45.053-3.92v-3.618c0-1.47-.018-2.778-.052-3.92a118.12 118.12 0 0 0-.16-3.444c.302.036.63.066.985.093.353.028.752.04 1.196.04.477 0 1.022-.022 1.632-.067.612-.044 1.37-.067 2.273-.067.673 0 1.25.018 1.728.055.48.034.89.088 1.236.157.345.072.647.165.903.28.258.116.502.254.733.412.53.39.952.874 1.263 1.448.308.577.464 1.263.464 2.062 0 1.293-.356 2.348-1.065 3.162-.71.817-1.73 1.392-3.058 1.727.85 1.51 1.764 3.01 2.74 4.506.973 1.5 1.95 2.983 2.924 4.455-.41-.037-.808-.053-1.196-.053h-2.401c-.4 0-.803.016-1.212.053l-4.757-8.374h-.24zm-402.802-4.401c-.284-.912-.678-1.688-1.183-2.325a5.192 5.192 0 0 0-1.836-1.477 5.37 5.37 0 0 0-2.352-.517c-.904 0-1.715.217-2.433.65a5.753 5.753 0 0 0-1.822 1.77c-.497.745-.874 1.617-1.13 2.62-.257 1-.385 2.068-.385 3.2 0 1.42.15 2.616.452 3.592.3.973.708 1.757 1.223 2.352.513.593 1.106 1.024 1.78 1.288.674.266 1.383.4 2.128.4.797 0 1.558-.17 2.286-.506.726-.34 1.36-.85 1.9-1.542.54-.69.974-1.57 1.303-2.63.328-1.067.492-2.324.492-3.778 0-1.152-.143-2.183-.425-3.097m-14.768-.014a9.216 9.216 0 0 1 2.06-3.03c.886-.87 1.958-1.55 3.217-2.047 1.26-.496 2.66-.746 4.2-.746 1.42 0 2.74.195 3.963.585 1.222.39 2.286.976 3.19 1.755.904.78 1.616 1.768 2.14 2.966.522 1.194.784 2.59.784 4.185 0 1.33-.252 2.57-.758 3.722a9.366 9.366 0 0 1-2.1 3.017c-.896.86-1.963 1.53-3.204 2.007-1.24.48-2.606.718-4.094.718-1.4 0-2.717-.173-3.948-.518-1.233-.346-2.305-.904-3.217-1.675-.914-.772-1.635-1.754-2.166-2.952-.53-1.196-.797-2.627-.797-4.293 0-1.31.243-2.542.73-3.696m35.726-2.03c-.035-1.143-.09-2.292-.16-3.443a90.85 90.85 0 0 1 2.366.08c.78.035 1.57.053 2.366.053 1.31 0 2.478-.013 3.496-.042 1.02-.025 1.705-.056 2.06-.09-.07.283-.106.654-.106 1.116 0 .285.008.504.027.665.018.16.043.336.08.53-.514-.033-1.077-.07-1.69-.104-.61-.036-1.205-.07-1.78-.107a80.409 80.409 0 0 0-1.555-.08c-.462-.017-.79-.025-.984-.025-.07.975-.11 1.94-.12 2.898a277.2 277.2 0 0 0-.013 2.896 154.298 154.298 0 0 0 6.034-.213c-.053.3-.088.532-.106.69-.02.16-.027.33-.027.507 0 .14.013.287.04.44.027.15.057.366.093.648a77.371 77.371 0 0 0-6.035-.237v1.355c0 1.47.02 2.78.054 3.922a94.4 94.4 0 0 0 .158 3.363c-.3-.037-.63-.054-.984-.054H92.68c-.356 0-.683.017-.984.054.07-1.1.125-2.22.16-3.363.035-1.143.053-2.45.053-3.922v-3.617c0-1.47-.017-2.778-.052-3.92m26.051 0c-.034-1.143-.09-2.292-.16-3.443.798.017 1.586.043 2.367.08.78.035 1.568.053 2.366.053 1.312 0 2.478-.013 3.497-.042 1.018-.025 1.705-.056 2.06-.09-.07.283-.106.654-.106 1.116 0 .285.01.504.027.665.02.16.044.336.08.53-.513-.033-1.077-.07-1.688-.104-.612-.036-1.207-.07-1.782-.107a80.819 80.819 0 0 0-1.555-.08c-.462-.017-.79-.025-.984-.025-.072.975-.112 1.94-.12 2.898-.01.955-.014 1.922-.014 2.896a154.298 154.298 0 0 0 6.034-.213c-.052.3-.087.532-.106.69a4.56 4.56 0 0 0-.026.507c0 .14.013.287.04.44.026.15.056.366.093.648a77.365 77.365 0 0 0-6.034-.237v1.355c0 1.47.018 2.78.053 3.922.034 1.143.087 2.264.16 3.363a8.136 8.136 0 0 0-.985-.054h-2.393c-.356 0-.683.017-.984.054.07-1.1.124-2.22.158-3.363.035-1.143.054-2.45.054-3.922v-3.617c0-1.47-.02-2.778-.054-3.92m26.224 0a111.25 111.25 0 0 0-.158-3.443c.3.035.628.066.983.09.354.03.753.043 1.197.043.442 0 .842-.013 1.196-.042.354-.025.683-.056.984-.09-.072 1.15-.125 2.3-.16 3.442-.035 1.14-.053 2.45-.053 3.92v3.616c0 1.47.017 2.78.052 3.922a96.76 96.76 0 0 0 .16 3.363c-.3-.037-.63-.054-.984-.054h-2.393a8.09 8.09 0 0 0-.983.054c.07-1.1.124-2.22.16-3.363.034-1.143.052-2.45.052-3.922v-3.617c0-1.47-.018-2.778-.053-3.92m35.818 12.947c-.106.38-.177.758-.212 1.13-1.436.726-3.244 1.09-5.424 1.09-1.54 0-2.92-.217-4.133-.653-1.216-.432-2.243-1.045-3.085-1.832a7.896 7.896 0 0 1-1.928-2.807c-.443-1.08-.664-2.248-.664-3.506 0-1.843.287-3.408.864-4.692.575-1.286 1.347-2.332 2.313-3.137a9.166 9.166 0 0 1 3.363-1.768 14.265 14.265 0 0 1 4.014-.56c.46 0 .947.036 1.462.108.512.07 1.01.164 1.488.28.478.114.935.25 1.37.41.433.16.8.328 1.102.506a8.202 8.202 0 0 0-.412 1.344c-.098.452-.164.907-.2 1.37h-.372c-.672-.852-1.364-1.458-2.073-1.822-.71-.364-1.542-.545-2.5-.545-.71 0-1.42.16-2.14.478-.717.318-1.368.806-1.953 1.462-.585.655-1.058 1.492-1.422 2.513-.363 1.018-.545 2.236-.545 3.655 0 1.364.186 2.53.558 3.494.373.966.857 1.755 1.45 2.367a5.503 5.503 0 0 0 2.02 1.342c.753.284 1.51.425 2.273.425.426 0 .86-.05 1.303-.146.442-.1.877-.232 1.302-.402.426-.166.83-.375 1.21-.623.382-.25.713-.523.997-.826l.346.212c-.14.374-.265.75-.372 1.13m16.634-12.943c-.034-1.143-.09-2.292-.16-3.443.302.035.63.066.985.09.353.03.752.043 1.196.043.442 0 .842-.013 1.196-.042.353-.025.682-.056.983-.09-.072 1.15-.125 2.3-.16 3.442-.035 1.14-.053 2.45-.053 3.92v3.616c0 1.47.018 2.78.053 3.922a96.76 96.76 0 0 0 .16 3.363c-.3-.037-.63-.054-.984-.054h-2.393c-.356 0-.683.017-.984.054.07-1.1.125-2.22.16-3.363.034-1.143.053-2.45.053-3.922v-3.617c0-1.47-.02-2.778-.054-3.92m27.27 1.554a99.324 99.324 0 0 0-1.302 3.15 110.58 110.58 0 0 0-1.197 3.18h4.866c-.39-1.083-.776-2.14-1.156-3.18-.38-1.035-.784-2.084-1.21-3.15m9.41 13.267a14.746 14.746 0 0 0-1.208-.053h-2.26c-.382 0-.758.018-1.13.053-.284-.868-.576-1.755-.877-2.66-.3-.903-.622-1.806-.957-2.71a69.136 69.136 0 0 0-1.702-.038 96.53 96.53 0 0 0-1.7-.016c-.463 0-.923.005-1.383.015-.462.005-.923.018-1.383.037a54.966 54.966 0 0 0-.984 2.71 63.61 63.61 0 0 0-.824 2.66 3.847 3.847 0 0 0-.624-.053h-1.263a4.93 4.93 0 0 0-.69.053c.21-.46.494-1.098.85-1.914.353-.814.744-1.737 1.17-2.765l1.368-3.31c.487-1.178.974-2.37 1.462-3.575.487-1.205.966-2.393 1.436-3.563.47-1.17.9-2.258 1.29-3.27.176.037.346.067.505.093.16.027.328.04.505.04s.346-.013.506-.04c.16-.026.327-.056.505-.093l1.822 4.84a304.636 304.636 0 0 0 1.954 5.063c.654 1.658 1.292 3.23 1.914 4.72a61.748 61.748 0 0 0 1.7 3.774m15.609-14.818c-.035-1.143-.09-2.292-.16-3.443.3.035.628.066.984.09.354.03.752.043 1.196.043.442 0 .84-.013 1.196-.042.354-.025.682-.056.984-.09-.072 1.15-.125 2.3-.16 3.442a132.69 132.69 0 0 0-.053 3.92v3.616c0 1.01.003 1.984.013 2.925.008.94.02 1.754.04 2.446 1.01 0 2.02-.027 3.03-.08a45.33 45.33 0 0 0 3.057-.266 8.94 8.94 0 0 0-.08.532c-.018.16-.026.38-.026.663 0 .284.008.506.027.666.02.157.044.29.08.398a60.718 60.718 0 0 0-1.768-.04c-.7-.01-1.66-.014-2.884-.014h-4.214c-.398 0-.7.005-.904.014-.204.008-.377.02-.518.04.07-1.1.125-2.22.16-3.363.034-1.143.053-2.45.053-3.922v-3.617c0-1.47-.02-2.778-.053-3.92" mask="url(#b)"/><path fill="#010202" d="M336.452 58.8a3.045 3.045 0 0 0-3.046 3.046V81.52a3.044 3.044 0 0 0 3.046 3.046 3.044 3.044 0 0 0 3.046-3.046V61.846a3.046 3.046 0 0 0-3.046-3.047m94.746 9.719c-1.02 0-2.268.625-3.354 1.283l-1.02.626v6.805h2.106c2.795 0 4.34-1.28 4.34-4.108v-2.565c0-1.414-.658-2.04-2.072-2.04m-50.473 4.111v2.564c0 1.412.625 2.04 2.04 2.04 1.02 0 2.3-.628 3.354-1.284l1.017-.625v-6.807h-2.072c-2.828 0-4.34 1.283-4.34 4.11m28.838-4.11c-2.564 0-3.584 1.152-3.584 4.374 0 3.19 1.02 4.34 3.584 4.34 2.566 0 3.617-1.15 3.617-4.34 0-3.222-1.052-4.374-3.618-4.374m60.799 0c-2.564 0-3.584 1.152-3.584 4.374 0 3.19 1.02 4.34 3.584 4.34 2.566 0 3.617-1.15 3.617-4.34 0-3.222-1.05-4.374-3.617-4.374m-143.292-4.102a2.642 2.642 0 0 0-2.642 2.642v14.867a2.642 2.642 0 1 0 5.282 0V67.058a2.64 2.64 0 0 0-2.64-2.642" mask="url(#b)"/><path fill="#010202" d="M501.894 80.98c-1.71.56-4.636.887-6.543.887h-1.544V70.82c0-1.414-.263-2.3-1.677-2.3-1.02 0-2.304.788-3.487 1.544l-1.018.625v11.177h-5.658V68.123c-.475.068-1.72.352-2.906.637.382 1.164.573 2.535.573 4.132 0 6.905-3.09 9.24-9.273 9.24-5.886 0-9.24-2.335-9.24-9.24 0-6.445 3.354-9.273 9.24-9.273 2.783 0 4.903.607 6.433 1.825 1.924-.572 7.445-1.562 9.285-1.562h1.547v2.728l.787-.525c2.04-1.48 3.586-2.466 5.887-2.466 3.483 0 5.16 2.202 5.16 5.655v8.35c.89-.13 1.743-.294 2.434-.524v3.88zm-40.708 0c-1.676.56-4.602.887-6.543.887h-1.545V68.492c-1.052.067-1.58.027-2.433.027h-3.75v5.39c0 2.6.987 3.584 2.83 3.584.69 0 1.445-.23 2.3-.624v4.604c-1.217.427-2.466.658-3.65.658-4.175 0-7.136-2.237-7.136-6.94V68.52h-2.44c.038.328.073.66.073 1.017v3.586c0 5.392-4.11 8.744-9.504 8.744h-2.564v6.183h-5.656V68.123c-.92.133-1.776.33-2.433.527v-3.88c1.71-.56 4.636-.887 6.543-.887h1.546v2.432l1.282-.888c1.644-1.15 3.09-1.808 5.03-1.808 2.703 0 4.506 1.177 5.295 3.242v-2.98h2.826V59.28h5.655v4.603h3.75c2.516-.017 4.636 0 6.544 0h1.544v13.743c.92-.132 1.776-.295 2.432-.525v3.88zm-51.624 1.152c-5.885 0-9.24-2.335-9.24-9.24 0-6.445 3.355-9.273 9.24-9.273 6.183 0 9.273 2.827 9.273 9.272 0 6.905-3.09 9.24-9.273 9.24zm-16.77 5.918h-5.656v-8.615l-1.28.89c-1.646 1.115-3.09 1.807-5.032 1.807-3.715 0-5.754-2.204-5.754-5.92V72.63c0-5.394 4.11-8.747 9.503-8.747h8.22V88.05zm-18.182-7.07c-1.676.56-4.604.887-6.543.887h-1.547V68.123c-.92.133-1.774.33-2.432.527v-3.88c1.71-.56 4.635-.887 6.543-.887h1.546v13.743c.92-.132 1.776-.295 2.434-.525v3.88zm-47.103 12.756c-11.657 0-21.108-9.45-21.108-21.107 0-11.658 9.45-21.11 21.107-21.11 11.66 0 21.108 9.452 21.108 21.11 0 11.657-9.45 21.106-21.108 21.106zm39.013-31.893h5.656v-4.636h-5.656v4.636zm86.578 0h5.656v-4.636h-5.656v4.636zM522.213 3H269.915v139.258h252.298c8.89 0 16.165-8.082 16.165-17.96V20.96c0-9.877-7.274-17.96-16.165-17.96z" mask="url(#b)"/><path fill="#010202" d="M317.882 68.617a2.753 2.753 0 0 0-2.752 2.753v10.16c0 1.52 1.23 2.75 2.752 2.75 1.52 0 2.753-1.23 2.753-2.75V71.37a2.754 2.754 0 0 0-2.753-2.753m120.551-.099h.387a6.787 6.787 0 0 0-.387-1.655v1.655zm12.231.002h.856v-4.637h-.856m26.129 1.562c-.07.02-.148.043-.207.063v3.88c.317-.095 1.37-.363 2.475-.63-.46-1.42-1.238-2.496-2.267-3.313" mask="url(#b)"/></g></g></svg>